<?xml version="1.0" encoding="UTF-8" standalone="no"?>
<!-- Created with Inkscape (http://www.inkscape.org/) -->

<svg
   width="123.73858mm"
   height="123.73858mm"
   viewBox="0 0 123.73858 123.73858"
   version="1.1"
   id="svg5"
   inkscape:version="1.1 (c68e22c387, 2021-05-23)"
   sodipodi:docname="beebee.svg"
   xmlns:inkscape="http://www.inkscape.org/namespaces/inkscape"
   xmlns:sodipodi="http://sodipodi.sourceforge.net/DTD/sodipodi-0.dtd"
   xmlns="http://www.w3.org/2000/svg"
   xmlns:svg="http://www.w3.org/2000/svg">
  <sodipodi:namedview
     id="namedview7"
     pagecolor="#ffffff"
     bordercolor="#666666"
     borderopacity="1.0"
     inkscape:pageshadow="2"
     inkscape:pageopacity="0.0"
     inkscape:pagecheckerboard="0"
     inkscape:document-units="mm"
     showgrid="false"
     inkscape:snap-nodes="false"
     inkscape:zoom="1.4823793"
     inkscape:cx="187.19905"
     inkscape:cy="253.30898"
     inkscape:window-width="1920"
     inkscape:window-height="1017"
     inkscape:window-x="-8"
     inkscape:window-y="-8"
     inkscape:window-maximized="1"
     inkscape:current-layer="layer1" />
  <defs
     id="defs2" />
  <g
     inkscape:label="Layer 1"
     inkscape:groupmode="layer"
     id="layer1"
     transform="translate(-7.8447127,-45.583004)">
    <rect
       style="fill:#ff9129;fill-opacity:0.74902;stroke-width:2.58828;stroke-linecap:round;stroke-opacity:0.74902;paint-order:fill markers stroke"
       id="rect846"
       width="123.73858"
       height="123.73858"
       x="7.8447127"
       y="45.583004"
       ry="0" />
    <path
       style="fill:#b35700;fill-opacity:1;stroke:none;stroke-width:0.219151px;stroke-linecap:butt;stroke-linejoin:miter;stroke-opacity:1"
       d="m 48.165116,80.323242 c 17.718941,-5.091249 21.551139,23.060678 3.970374,24.748898 -1.251667,9.63436 -5.154799,11.88096 -13.2354,15.21363 -3.874199,2.58274 -2.386879,2.57083 -6.175645,0.14825 -9.922222,-1.90633 -11.821253,-8.28046 -13.52725,-17.28918 l -3.121027,-1.75123 -3.621376,-4.903151 c -0.336981,-2.563176 -0.790431,-4.113154 2.522686,-2.468408 -2.178292,-2.843221 0.749068,-4.702764 3.509389,-1.932763 -1.554028,-3.220801 1.895016,-4.014455 3.646044,-1.989123 0.270406,-2.352738 2.244367,-3.552211 4.221322,-0.62157 l 1.513423,2.894008 c 3.264669,-1.200049 3.127325,2.069488 2.697106,5.764086 4.100099,3.202071 5.931185,2.571521 6.023091,7.624531 -1.047643,-7.502771 0.560313,-7.940951 7.122733,-10.64748 -1.700839,-7.7728 -0.06279,-8.211858 4.45453,-14.790498 z"
       id="path4287-5"
       sodipodi:nodetypes="cccccccccccccccc" />
    <ellipse
       style="fill:#ffffff;fill-opacity:0.75;stroke:none;stroke-width:0.264999;stroke-linecap:round;stroke-linejoin:round;stroke-miterlimit:4;stroke-dasharray:none;stroke-opacity:0.74902;paint-order:fill markers stroke"
       id="path3930-8"
       cx="61.39904"
       cy="78.355171"
       rx="19.097956"
       ry="19.811897" />
    <path
       style="fill:#000000;fill-opacity:1;stroke:none;stroke-width:0.264583px;stroke-linecap:butt;stroke-linejoin:miter;stroke-opacity:1"
       d="m 95.668268,140.0546 15.528242,10.35216 -7.85336,-16.77764 z"
       id="path3562" />
    <ellipse
       style="fill:#ffcf29;fill-opacity:1;stroke-width:3.0701;stroke-linecap:round;stroke-opacity:0.74902;paint-order:fill markers stroke"
       id="path950"
       cx="116.55093"
       cy="42.8913"
       rx="42.459747"
       ry="35.293251"
       transform="matrix(0.80936354,0.58730798,-0.48485311,0.8745956,0,0)" />
    <ellipse
       style="fill:#000000;fill-opacity:1;stroke-width:3;stroke-linecap:round;stroke-opacity:0.74902;paint-order:fill markers stroke"
       id="path1164"
       cx="57.293869"
       cy="75.175064"
       rx="3.9266827"
       ry="3.3019831" />
    <circle
       style="fill:#000000;fill-opacity:1;stroke-width:3;stroke-linecap:round;stroke-opacity:0.74902;paint-order:fill markers stroke"
       id="path1298"
       cx="35.786358"
       cy="82.671463"
       r="2.7665265" />
    <path
       style="fill:#000000;fill-opacity:0.75;stroke:none;stroke-width:0.265;stroke-linecap:round;stroke-linejoin:round;stroke-miterlimit:4;stroke-dasharray:none;stroke-opacity:1"
       d="m 35.850441,113.63873 6.954646,12.85096 c 34.35199,-2.45443 53.982302,-19.12628 62.520273,-40.178149 L 98.530326,78.248239 C 76.326188,104.14048 68.699003,107.15546 35.850441,113.63873 Z"
       id="path1333"
       sodipodi:nodetypes="ccccc" />
    <path
       style="fill:#000000;fill-opacity:0.74902;stroke:none;stroke-width:0.264583px;stroke-linecap:round;stroke-linejoin:round;stroke-opacity:1"
       d="M 49.969671,135.77094 C 84.865919,127.67126 96.429157,116.90197 108.7103,93.106573 l 4.64062,11.780077 c -12.63114,23.98539 -34.353648,36.58809 -52.665825,37.30977 z"
       id="path1335"
       sodipodi:nodetypes="ccccc" />
    <path
       style="fill:#000000;fill-opacity:0.74902;stroke:none;stroke-width:0.264583px;stroke-linecap:round;stroke-linejoin:round;stroke-opacity:1"
       d="m 72.286658,146.12311 c 18.877906,-4.85183 29.088752,-16.11876 42.301082,-29.45012 l -3.02167,11.07239 c -7.5801,14.9973 -14.625657,18.54172 -29.105736,19.09167 z"
       id="path1337"
       sodipodi:nodetypes="ccccc" />
    <path
       style="fill:none;stroke:#000000;stroke-width:3;stroke-linecap:round;stroke-linejoin:round;stroke-miterlimit:4;stroke-dasharray:none;stroke-opacity:1"
       d="m 41.051683,84.902526 4.283652,3.034255 4.819113,-6.246995"
       id="path2938" />
    <ellipse
       style="fill:#ffffff;fill-opacity:0.75;stroke:none;stroke-width:0.264999;stroke-linecap:round;stroke-linejoin:round;stroke-miterlimit:4;stroke-dasharray:none;stroke-opacity:0.74902;paint-order:fill markers stroke"
       id="path3930"
       cx="106.3774"
       cy="84.188583"
       rx="19.097956"
       ry="19.811897" />
    <path
       style="fill:#b35700;fill-opacity:1;stroke:none;stroke-width:0.264583px;stroke-linecap:butt;stroke-linejoin:miter;stroke-opacity:1"
       d="m 69.430889,94.240383 c 2.473916,-22.119868 35.658581,-13.438245 29.450119,6.960937 10.176842,5.83185 10.887622,11.22232 10.887622,21.77524 1.09926,5.51291 1.77061,3.84741 -2.67729,6.96094 -6.69503,10.19678 -14.683407,9.38219 -25.523432,7.13942 l -3.391225,2.67729 -7.139424,1.78485 c -3.01591,-0.80376 -4.954586,-1.01114 -1.593789,-3.95184 -4.176049,1.12243 -4.903994,-3.0008 -0.541748,-4.80654 -4.310112,0.25188 -3.608267,-3.96297 -0.541748,-4.98501 -2.501443,-1.38481 -2.931541,-4.1401 1.2494,-4.99759 l 3.926684,-0.35698 c 0.163393,-4.19614 3.749333,-2.53783 7.674879,-0.35697 5.461195,-3.1022 5.600313,-5.43614 11.282331,-3.21274 -8.856163,-2.28436 -8.605049,-4.28071 -8.605049,-12.85096 -9.458222,-1.67962 -9.194237,-3.70997 -14.45733,-11.780047 z"
       id="path4287"
       sodipodi:nodetypes="cccccccccccccccc" />
    <path
       style="fill:#ff4a4a;fill-opacity:0.75;stroke:none;stroke-width:0.264583px;stroke-linecap:butt;stroke-linejoin:miter;stroke-opacity:1"
       d="m 92.277043,111.375 -1.784856,0.80318 c -0.706316,-4.18178 -0.322154,-3.1263 -4.372898,-4.28365 l 1.070914,-2.14183 c 4.361834,1.75864 3.03647,1.9514 5.354569,-2.05258 l 1.618004,3.40979 c -1.327007,0.82174 -2.376544,1.32024 -1.885733,4.26509 z"
       id="path7001"
       sodipodi:nodetypes="ccccccc" />
  </g>
</svg>
